<?xml version="1.0" encoding="UTF-8"?>
<svg width="100pt" height="100pt" version="1.1" viewBox="0 0 100 100" xmlns="http://www.w3.org/2000/svg">
 <g>
  <rect width="100" height="100" fill="#00457f"/>
  <path d="m74.602 24.414h-49.203c-2.7148 0-4.9219 2.207-4.9219 4.9219v33.457c0 2.7148 2.207 4.9219 4.9219 4.9219h10.746c-0.33594 2.1875-1.7695 4.0781-3.8477 4.9688l-2.1797 0.93359h-2.75c-2.7148 0-4.9219 2.207-4.9219 4.9219 0 0.54297 0.44141 0.98438 0.98438 0.98438h53.137c0.54297 0 0.98438-0.44141 0.98438-0.98438 0-2.7148-2.207-4.9219-4.9219-4.9219h-2.75l-2.1797-0.93359c-2.0781-0.89062-3.5156-2.7812-3.8477-4.9688l10.75-0.003906c2.7148 0 4.9219-2.207 4.9219-4.9219l-0.003907-29.516v-3.9375c0-2.7148-2.207-4.9219-4.918-4.9219zm-36.41 3.9375h34.441c0.54297 0 0.98438 0.44141 0.98438 0.98438 0 0.54297-0.44141 0.98437-0.98438 0.98437h-34.441c-0.54297 0-0.98438-0.44141-0.98438-0.98437 0-0.54297 0.44141-0.98438 0.98438-0.98438zm-2.9531 5.9023h17.711v15.742l-17.711 0.003906zm-5.9023-5.9023c0.54297 0 0.98437 0.44141 0.98437 0.98438 0 0.54297-0.44141 0.98437-0.98437 0.98437-0.54297 0-0.98438-0.44141-0.98438-0.98437 0-0.54297 0.44141-0.98438 0.98438-0.98438zm-3.9375 0c0.54297 0 0.98437 0.44141 0.98437 0.98438 0 0.54297-0.44141 0.98437-0.98437 0.98437-0.54297 0-0.98438-0.44141-0.98438-0.98437 0-0.54297 0.44141-0.98438 0.98438-0.98438zm7.875 37.391h-7.875c-1.6289 0-2.9531-1.3242-2.9531-2.9531l0.003907-28.535h10.824zm0-35.422c-0.54297 0-0.98438-0.44141-0.98438-0.98437 0-0.54297 0.44141-0.98438 0.98438-0.98438 0.54297 0 0.98437 0.44141 0.98437 0.98438-0.003906 0.54297-0.44141 0.98437-0.98437 0.98437zm1.9648 35.422v-13.773h17.711v13.777zm37.395 9.8398c1.2812 0 2.3789 0.82422 2.7852 1.9688h-50.832c0.40625-1.1445 1.5-1.9688 2.7812-1.9688zm4.918-12.789c0 1.6289-1.3242 2.9531-2.9531 2.9531l-19.68-0.003906v-31.488h22.633z" fill="#fff"/>
  <path d="m25.398 39.176h4.9219c0.54297 0 0.98438-0.44141 0.98438-0.98438 0-0.54297-0.44141-0.98438-0.98438-0.98438h-4.9219c-0.54297 0-0.98438 0.44141-0.98438 0.98438 0 0.54297 0.44141 0.98438 0.98438 0.98438z" fill="#fff"/>
  <path d="m25.398 43.113h4.9219c0.54297 0 0.98438-0.44141 0.98438-0.98438 0-0.54297-0.44141-0.98438-0.98438-0.98438h-4.9219c-0.54297 0-0.98438 0.44141-0.98438 0.98438 0 0.54297 0.44141 0.98438 0.98438 0.98438z" fill="#fff"/>
  <path d="m25.398 47.047h4.9219c0.54297 0 0.98438-0.44141 0.98438-0.98438s-0.44141-0.98438-0.98438-0.98438h-4.9219c-0.54297 0-0.98438 0.44141-0.98438 0.98438 0 0.54688 0.44141 0.98438 0.98438 0.98438z" fill="#fff"/>
  <path d="m25.398 50.984h4.9219c0.54297 0 0.98438-0.44141 0.98438-0.98438s-0.44141-0.98438-0.98438-0.98438h-4.9219c-0.54297 0-0.98438 0.44141-0.98438 0.98438s0.44141 0.98438 0.98438 0.98438z" fill="#fff"/>
  <path d="m25.398 54.918h4.9219c0.54297 0 0.98438-0.44141 0.98438-0.98438 0-0.54297-0.44141-0.98438-0.98438-0.98438l-4.9219 0.003906c-0.54297 0-0.98438 0.44141-0.98438 0.98438s0.44141 0.98047 0.98438 0.98047z" fill="#fff"/>
  <path d="m57.871 59.84c0.54297 0 0.98438-0.44141 0.98438-0.98438v-3.9375c0-0.54297-0.44141-0.98438-0.98438-0.98438-0.54297 0-0.98438 0.44141-0.98438 0.98438v3.9375c0 0.54297 0.44141 0.98438 0.98438 0.98438z" fill="#fff"/>
  <path d="m61.809 56.887c-0.54297 0-0.98438 0.44141-0.98438 0.98438v0.98438c0 0.54297 0.44141 0.98438 0.98438 0.98438 0.54297 0 0.98438-0.44141 0.98438-0.98438v-0.98438c0-0.54297-0.44141-0.98438-0.98438-0.98438z" fill="#fff"/>
  <path d="m64.762 53.938v4.9219c0 0.54297 0.44141 0.98438 0.98438 0.98438 0.54297 0 0.98438-0.44141 0.98438-0.98438v-4.9219c0-0.54297-0.44141-0.98438-0.98438-0.98438-0.54688 0-0.98438 0.4375-0.98438 0.98438z" fill="#fff"/>
  <path d="m68.695 49.016v9.8398c0 0.54297 0.44141 0.98438 0.98438 0.98438 0.54297 0 0.98437-0.44141 0.98437-0.98438v-9.8398c0-0.54297-0.44141-0.98438-0.98437-0.98438-0.54297 0-0.98438 0.44141-0.98438 0.98438z" fill="#fff"/>
  <path d="m73.617 46.062c-0.54297 0-0.98438 0.44141-0.98438 0.98438v11.809c0 0.54297 0.44141 0.98438 0.98438 0.98438 0.54297 0 0.98437-0.44141 0.98437-0.98438v-11.809c0-0.54297-0.44141-0.98438-0.98437-0.98438z" fill="#fff"/>
  <path d="m57.871 63.777h15.742c0.54297 0 0.98438-0.44141 0.98438-0.98438s-0.44141-0.98438-0.98438-0.98438h-15.742c-0.54297 0-0.98438 0.44141-0.98438 0.98438s0.44141 0.98438 0.98438 0.98438z" fill="#fff"/>
  <path d="m66.926 43.504-5.4102 7.2148-3.2031-1.6016c-0.48438-0.24219-1.0781-0.046876-1.3203 0.44141-0.24219 0.48438-0.046876 1.0781 0.44141 1.3203l3.9375 1.9688c0.13672 0.070313 0.28906 0.10547 0.4375 0.10547 0.30078 0 0.59766-0.14062 0.78906-0.39453l5.7188-7.625 5.6133-1.8711c0.51562-0.17188 0.79297-0.72656 0.62109-1.2461-0.17188-0.51562-0.72266-0.79688-1.2461-0.62109l-5.9023 1.9688c-0.19141 0.0625-0.35938 0.17969-0.47656 0.33984z" fill="#fff"/>
  <path d="m57.871 46.062h3.9375c0.54297 0 0.98438-0.44141 0.98438-0.98438v-7.8711c0-0.54297-0.44141-0.98438-0.98438-0.98438h-3.9375c-0.54297 0-0.98438 0.44141-0.98438 0.98438v7.8711c0 0.54688 0.44141 0.98438 0.98438 0.98438zm0.98438-7.8711h1.9688v1.9688h-1.9688z" fill="#fff"/>
  <path d="m65.742 38.191h5.9023c0.54297 0 0.98438-0.44141 0.98438-0.98438s-0.44141-0.98438-0.98438-0.98438h-5.9023c-0.54297 0-0.98438 0.44141-0.98438 0.98438 0.003907 0.54297 0.44141 0.98438 0.98438 0.98438z" fill="#fff"/>
  <path d="m42.129 53.938c-2.7148 0-4.9219 2.207-4.9219 4.9219s2.207 4.9219 4.9219 4.9219 4.9219-2.207 4.9219-4.9219c-0.003906-2.7148-2.2109-4.9219-4.9219-4.9219zm0.98438 3.9336v-1.7852c0.83203 0.29687 1.4883 0.95312 1.7852 1.7852z" fill="#fff"/>
  <path d="m50 53.938h-1.9688c-0.54297 0-0.98438 0.44141-0.98438 0.98438s0.44141 0.98438 0.98438 0.98438h1.9688c0.54297 0 0.98438-0.44141 0.98438-0.98438 0-0.54688-0.44141-0.98438-0.98438-0.98438z" fill="#fff"/>
  <path d="m50.984 62.793c0 1.3125-1.9688 1.3125-1.9688 0s1.9688-1.3125 1.9688 0" fill="#fff"/>
  <path d="m45.824 43.082c0.33594 0.082031 0.69141-0.015625 0.93359-0.25781l3.9375-3.9375c0.38281-0.38281 0.38281-1.0078 0-1.3906-0.38281-0.38281-1.0078-0.38281-1.3906 0l-3.543 3.543-3.3945-0.84766c-0.40234-0.10156-0.82813 0.0625-1.0586 0.41016l-2.1328 3.1953v-6.5898c0-0.54297-0.44141-0.98438-0.98438-0.98438-0.54297 0-0.98438 0.44141-0.98438 0.98438v9.8398c0 0.54297 0.44141 0.98438 0.98438 0.98438h11.809c0.54297 0 0.98438-0.44141 0.98438-0.98438s-0.44141-0.98438-0.98438-0.98438h-9.9688l2.5312-3.7969z" fill="#fff"/>
 </g>
</svg>
